<svg xmlns="http://www.w3.org/2000/svg" fill="none" viewBox="0 0 48 48"><path stroke-linejoin="round" stroke-width="4" stroke="currentColor" d="M5 8a2 2 0 0 1 2-2h12l5 6h17a2 2 0 0 1 2 2v26a2 2 0 0 1-2 2H7a2 2 0 0 1-2-2V8Z"/><circle stroke-width="4" stroke="currentColor" r="4" cy="28" cx="24"/><path stroke-linejoin="round" stroke-linecap="round" stroke-width="4" stroke="currentColor" d="M24 21v3M24 32v3M28.828 23l-2.121 2.121M20.828 31l-2.121 2.121M19 23l2.121 2.121M27 31l2.121 2.121M17 28h3M28 28h3"/></svg>
